<svg xmlns="http://www.w3.org/2000/svg" width="381" height="381" viewBox="0 0 381 381">
  <defs>
    <style>
      .cls-1 {
        fill: #fff;
        fill-rule: evenodd;
      }
    </style>
  </defs>
  <path id="INFO" class="cls-1" d="M190.5,16C90.42,16,9,94.28,9,190.5S90.42,365,190.5,365,372,286.725,372,190.5,290.579,16,190.5,16Zm0,325.735c-86.738,0-157.3-67.846-157.3-151.234S103.761,39.265,190.5,39.265,347.8,107.106,347.8,190.5,277.238,341.733,190.5,341.733Zm0-279.2c-73.392,0-133.1,57.406-133.1,127.967s59.708,127.967,133.1,127.967S323.6,261.06,323.6,190.5,263.891,62.532,190.5,62.532Zm0,232.667c-60.045,0-108.9-46.965-108.9-104.7S130.454,85.8,190.5,85.8s108.9,46.97,108.9,104.7S250.545,295.2,190.5,295.2Zm30.25-58.167H202.6v-69.8A11.874,11.874,0,0,0,190.5,155.6H166.3a11.642,11.642,0,1,0,0,23.267h12.1v58.166h-18.15a11.642,11.642,0,1,0,0,23.267h60.5A11.643,11.643,0,1,0,220.749,237.032ZM178.4,143.965h12.1a11.642,11.642,0,1,0,0-23.266H178.4A11.642,11.642,0,1,0,178.4,143.965Z"/>
</svg>
