<svg xmlns="http://www.w3.org/2000/svg" width="429" height="429" viewBox="0 0 429 429">
  <defs>
    <style>
      .cls-1 {
        fill: #fff;
        fill-rule: evenodd;
      }
    </style>
  </defs>
  <path id="SYM_DAY" data-name="SYM DAY" class="cls-1" d="M117.981,147.618c-17,13.6-47.6,10.2-82.712,30.811a95.739,95.739,0,0,0,11.756,2.782c16.086,3.4,66.213,5.577,76.423,11.761,5.259,3.094,19.489,16.7,20.728,28.763a12.759,12.759,0,0,1-5.26,12.681c-9.9,8.043-62.183,31.24-75.177,31.24-11.756,0-34.34-8.969-35.267-17.012-0.309-1.856.619-3.712,1.547-5.258,6.187-9.9,77.343-21.03,78.579-28.143-0.308-.312-0.928,0-1.545-0.312-1.856-.309-4.951-0.926-7.735-1.544-24.75-6.5-73.019-1.557-91.582-20.733-4.023-4.021-6.188-11.134-6.807-16.7-0.928-7.731,0-18.865,6.188-24.744,14.54-13.606,63.264-30.785,83.664-34.184C108.786,114.025,123.779,142.981,117.981,147.618Zm95.543,48.139c-2.291,5.747,2.476,52.578-2.784,60.93-1.856,3.4-5.568,4.637-8.972,4.637-7.735,0-20.108-8.348-24.131-11.442-2.475-1.547-4.64-6.188-5.259-11.755-1.546-13.606-.929-42.678-0.618-51.648-12.994-14.848-54.149-64.963-55.077-73-0.928-8.66,8.662-10.824,13.922-10.824s11.287,0.507,18.919,9.678c3.075,3.7,3.428,4.206,13.573,19.1,8.406,12.336,16.4,23.506,19.8,28.146l0.619-1.238c6.805-14.845,29.214-59.578,34.163-64.528A24.9,24.9,0,0,1,234.7,87c7.734,0,16.4,4.02,17.015,13.3C252.638,113.291,215.752,190.169,213.524,195.757ZM427.366,234.9c-2.859,9.908-13.5,13.778-22.877,13.778-18.252,0-27.224-38.658-30.008-51.03-8.366,17.607-18.928,37.375-26.043,45.727-4.021,4.637-10.209,5.567-15.468,5.567-7.425,0-18.253-2.477-23.2-7.735-5.259-5.567-20.388-52.06-22.245-62.267-12.769,33.014-22.922,60.1-30.657,72.784-2.784,4.64-10.518,5.566-14.231,5.566-7.114,0-15.158-4.02-15.777-9.895-1.237-8.969,41.448-112.931,47.016-119.736s15.159-12.681,23.82-12.681c5.569,0,11,5.7,14.321,12.02,2.862,5.448,6.6,13.866,30.856,72.765,4.7-9.236,9.663-18.294,14.776-27.287,4.6-8.088,9.943-16.7,18.856-20.534a23.671,23.671,0,0,1,23.135,2.633c5.059,3.8,8.275,9.549,10.818,15.344,3.713,8.462,6.287,17.352,9.085,26.142,2.189,6.878,4.518,13.718,6.389,20.692C427.6,222.982,429,229.242,427.366,234.9Zm-308.327,132.6a1.827,1.827,0,0,1-.492-1.354v-82.4a1.7,1.7,0,0,1,1.846-1.846H152.01a42.784,42.784,0,0,1,17.655,3.446,27.2,27.2,0,0,1,11.87,9.716,25.545,25.545,0,0,1,4.184,14.513v30.745a25.555,25.555,0,0,1-4.184,14.516,27.255,27.255,0,0,1-11.87,9.717A42.848,42.848,0,0,1,152.01,368H120.393A1.821,1.821,0,0,1,119.039,367.508ZM142.291,348.2h10.581a8.564,8.564,0,0,0,6.888-3.26,13.465,13.465,0,0,0,2.831-8.547V313.513a12.957,12.957,0,0,0-2.708-8.547,8.825,8.825,0,0,0-7.136-3.26H142.291a0.544,0.544,0,0,0-.615.617v45.258A0.545,0.545,0,0,0,142.291,348.2Zm101.866,18.2-2.707-9.594a0.725,0.725,0,0,0-.615-0.491h-26.08a0.727,0.727,0,0,0-.617.491l-2.706,9.594a1.915,1.915,0,0,1-2.091,1.6H188.3q-2.215,0-1.6-2.091l25.958-82.527a2.006,2.006,0,0,1,2.093-1.477h26.08a2.005,2.005,0,0,1,2.091,1.477l25.959,82.527a1.75,1.75,0,0,1,.123.736c0,0.907-.574,1.355-1.723,1.355H246.248A1.914,1.914,0,0,1,244.157,366.4Zm-24.113-27.794h15.378c0.492,0,.656-0.246.492-0.741l-7.873-27.548a0.37,0.37,0,0,0-.739,0l-7.75,27.548C219.47,338.36,219.632,338.606,220.044,338.606Zm68.4,28.657a1.828,1.828,0,0,1-.491-1.354V338.728l-0.123-.736-25.1-53.873-0.248-.982q0-1.232,1.6-1.232h21.159a2.219,2.219,0,0,1,2.215,1.477l11.688,29.394q0.367,0.863.738,0l11.687-29.394a2.216,2.216,0,0,1,2.214-1.477h21.284q1.6,0,1.6,1.232l-0.246.982-25.343,53.873a1.682,1.682,0,0,0-.123.736v27.181a1.7,1.7,0,0,1-1.846,1.845H289.8A1.826,1.826,0,0,1,288.444,367.263Z"/>
</svg>
